<svg width="101" height="101" viewBox="0 0 101 101" fill="none" xmlns="http://www.w3.org/2000/svg">
<path d="M85.0646 32.2987V35.9341C85.0646 37.0396 85.9607 37.9358 87.0662 37.9358H98.0809C99.1864 37.9358 100.083 37.0396 100.083 35.9341V32.2987C100.083 31.1932 99.1864 30.297 98.0809 30.297H87.0662C85.9607 30.297 85.0646 31.1932 85.0646 32.2987Z" fill="#E8FF8E"/>
<path d="M67.7855 0.000976563H64.1501C63.0446 0.000976514 62.1484 0.897156 62.1484 2.00265V13.0173C62.1484 14.1228 63.0446 15.019 64.1501 15.019H67.7855C68.891 15.019 69.7871 14.1228 69.7871 13.0173V2.00265C69.7871 0.897156 68.891 0.000976611 67.7855 0.000976563Z" fill="#E8FF8E"/>
<path d="M84.3727 9.02008C84.3727 8.49511 84.7983 8.06953 85.3232 8.06953H91.0608C91.5858 8.06953 92.0114 8.49511 92.0114 9.02008V14.7577C92.0114 15.2827 91.5858 15.7083 91.0608 15.7083H86.0151C85.4902 15.7083 85.0646 16.1338 85.0646 16.6588V21.7032C85.0646 22.2282 84.639 22.6537 84.114 22.6537H78.3764C77.8515 22.6537 77.4259 22.2282 77.4259 21.7032V15.9656C77.4259 15.4406 77.8515 15.015 78.3764 15.015H83.4221C83.9471 15.015 84.3727 14.5894 84.3727 14.0645V9.02008Z" fill="#E8FF8E"/>
<path d="M1.3504 27.2402C0.604599 27.2402 0 27.8448 0 28.5906V33.1742C0 33.92 0.604599 34.5246 1.3504 34.5246H5.93395C6.67975 34.5246 7.28434 35.1292 7.28434 35.875V40.4585C7.28434 41.2043 7.88893 41.8089 8.63473 41.8089H13.2183C13.9641 41.8089 14.5687 42.4135 14.5687 43.1593V62.3115C14.5687 63.0573 15.1733 63.6619 15.9191 63.6619H20.5026C21.2484 63.6619 21.853 64.2664 21.853 65.0122L21.853 76.8801C21.853 77.6259 22.4576 78.2305 23.2034 78.2305H27.7869C28.5327 78.2305 29.1373 78.8351 29.1373 79.5809V91.4488C29.1373 92.1946 29.7419 92.7991 30.4877 92.7991H35.0713C35.8171 92.7991 36.4216 93.4037 36.4216 94.1495V98.7331C36.4216 99.4789 37.0262 100.083 37.772 100.083H42.3556C43.1014 100.083 43.706 99.4789 43.706 98.7331V85.5148H49.6399C50.3857 85.5148 50.9903 84.9102 50.9903 84.1644V70.9462H56.9242C57.67 70.9462 58.2746 70.3416 58.2746 69.5958V49.0932L64.2085 49.0932C64.9543 49.0932 65.5589 48.4886 65.5589 47.7428V35.875C65.5589 35.1292 66.1635 34.5246 66.9093 34.5246H71.4929C72.2387 34.5246 72.8433 33.92 72.8433 33.1742V28.5906C72.8433 27.8448 72.2387 27.2402 71.4929 27.2402H52.3407C51.5949 27.2402 50.9903 27.8448 50.9903 28.5906V33.1742C50.9903 33.92 51.5949 34.5246 52.3407 34.5246H56.9242C57.67 34.5246 58.2746 35.1292 58.2746 35.875V49.0932H52.3407C51.5949 49.0932 50.9903 49.6978 50.9903 50.4436V70.9462H45.0564C44.3106 70.9462 43.706 71.5508 43.706 72.2966V85.5148H37.772C37.0262 85.5148 36.4216 84.9102 36.4216 84.1644V72.2966C36.4216 71.5508 35.8171 70.9462 35.0713 70.9462H30.4877C29.7419 70.9462 29.1373 70.3416 29.1373 69.5958V50.4436C29.1373 49.6978 28.5327 49.0932 27.7869 49.0932L23.2034 49.0932C22.4576 49.0932 21.853 48.4886 21.853 47.7428V35.875C21.853 35.1292 22.4576 34.5246 23.2034 34.5246H27.7869C28.5327 34.5246 29.1373 33.92 29.1373 33.1742V28.5906C29.1373 27.8448 28.5327 27.2402 27.7869 27.2402H1.3504Z" fill="#E8FF8E"/>
</svg>
