<svg xmlns="http://www.w3.org/2000/svg" width="719" height="152" viewBox="0 0 719 152" fill="none">
<mask id="mask0_802_254" style="mask-type:luminance" maskUnits="userSpaceOnUse" x="0" y="0" width="719" height="152">
<path d="M719 0H0V152H719V0Z" fill="white"/>
</mask>
<g mask="url(#mask0_802_254)">
<path d="M2.63109 17.4443C1.27292 17.4443 0.171875 18.5448 0.171875 19.9024V28.2455C0.171875 29.603 1.27292 30.7035 2.63109 30.7035H10.9782C12.3363 30.7035 13.4374 31.804 13.4374 33.1616V41.5047C13.4374 42.8622 14.5384 43.9627 15.8966 43.9627H24.2436C25.6019 43.9627 26.7028 45.0633 26.7028 46.4208V81.2824C26.7028 82.6399 27.8039 83.7405 29.162 83.7405H37.5092C38.8673 83.7405 39.9684 84.8409 39.9684 86.1985V107.801C39.9684 109.158 41.0693 110.259 42.4276 110.259H50.7746C52.1327 110.259 53.2338 111.359 53.2338 112.717V134.32C53.2338 135.677 54.3347 136.778 55.693 136.778H64.04C65.3983 136.778 66.4992 137.878 66.4992 139.235V147.578C66.4992 148.936 67.6003 150.036 68.9584 150.036H77.3056C78.6637 150.036 79.7648 148.936 79.7648 147.578V123.518H90.571C91.9291 123.518 93.0302 122.418 93.0302 121.06V96.9997H103.836C105.195 96.9997 106.296 95.8991 106.296 94.5416V57.222H117.102C118.46 57.222 119.562 56.1215 119.562 54.7639V33.1616C119.562 31.804 120.662 30.7035 122.021 30.7035H130.368C131.725 30.7035 132.827 29.603 132.827 28.2455V19.9024C132.827 18.5448 131.725 17.4443 130.368 17.4443H95.4894C94.1313 17.4443 93.0302 18.5448 93.0302 19.9024V28.2455C93.0302 29.603 94.1313 30.7035 95.4894 30.7035H103.836C105.195 30.7035 106.296 31.804 106.296 33.1616V57.222H95.4894C94.1313 57.222 93.0302 58.3225 93.0302 59.68V96.9997H82.224C80.8657 96.9997 79.7648 98.1002 79.7648 99.4577V123.518H68.9584C67.6003 123.518 66.4992 122.418 66.4992 121.06V99.4577C66.4992 98.1002 65.3983 96.9997 64.04 96.9997H55.693C54.3347 96.9997 53.2338 95.8991 53.2338 94.5416V59.68C53.2338 58.3225 52.1327 57.222 50.7746 57.222H42.4276C41.0694 57.222 39.9684 56.1215 39.9684 54.7639V33.1616C39.9684 31.804 41.0693 30.7035 42.4276 30.7035H50.7746C52.1327 30.7035 53.2338 29.603 53.2338 28.2455V19.9024C53.2338 18.5448 52.1327 17.4443 50.7746 17.4443H2.63109Z" fill="#01100B"/>
<path fill-rule="evenodd" clip-rule="evenodd" d="M227.948 67.5715C226.569 67.5715 225.451 66.4666 225.451 65.1039V56.4676C225.451 55.1048 224.333 54 222.955 54H200.487C199.109 54 197.991 55.1048 197.991 56.4676V65.1039C197.991 66.4666 199.109 67.5715 200.487 67.5715H209.225C210.603 67.5715 211.721 68.6762 211.721 70.0389V132.961C211.721 134.323 210.603 135.428 209.225 135.428H200.487C199.109 135.428 197.991 136.533 197.991 137.896V146.532C197.991 147.895 199.109 149 200.487 149H236.685C238.064 149 239.182 147.895 239.182 146.532V137.896C239.182 136.533 238.064 135.428 236.685 135.428H227.948C226.569 135.428 225.451 134.323 225.451 132.961V83.6103C225.451 82.2475 226.569 81.1428 227.948 81.1428H236.685C238.064 81.1428 239.182 80.0381 239.182 78.6753V67.5715H264.146C265.524 67.5715 266.642 66.4666 266.642 65.1039V56.4676C266.642 55.1048 265.524 54 264.146 54H241.678C240.299 54 239.182 55.1048 239.182 56.4676V67.5715H227.948Z" fill="#01100B"/>
<path fill-rule="evenodd" clip-rule="evenodd" d="M180.58 56.5195C180.58 55.1281 179.487 54 178.137 54H142.727C141.379 54 140.285 55.1281 140.285 56.5195V67.8572H129.296C127.946 67.8572 126.853 68.9851 126.853 70.3766V79.1948C126.853 80.5863 125.76 81.7142 124.411 81.7142H115.864C114.515 81.7142 113.422 82.8422 113.422 84.2337V120.766C113.422 122.157 114.515 123.285 115.864 123.285H124.411C125.76 123.285 126.853 124.413 126.853 125.804V134.623C126.853 136.014 127.946 137.142 129.296 137.142H140.285V148.48C140.285 149.872 141.379 151 142.727 151H178.137C179.487 151 180.58 149.872 180.58 148.48V137.142H191.57C192.918 137.142 194.011 136.014 194.011 134.623V125.804C194.011 124.413 192.918 123.285 191.57 123.285H183.022C181.674 123.285 180.58 124.413 180.58 125.804V137.142H140.285V111.948C140.285 110.557 139.192 109.429 137.843 109.429H129.296C127.946 109.429 126.853 108.3 126.853 106.909V98.0908C126.853 96.6994 127.946 95.5713 129.296 95.5713H178.137C179.487 95.5713 180.58 94.4433 180.58 93.0519V81.7142H191.57C192.918 81.7142 194.011 80.5863 194.011 79.1948V70.3766C194.011 68.9851 192.918 67.8572 191.57 67.8572H180.58V56.5195ZM180.58 67.8572V81.7142H142.727C141.379 81.7142 140.285 80.5863 140.285 79.1948V67.8572H180.58Z" fill="#01100B"/>
<path fill-rule="evenodd" clip-rule="evenodd" d="M703.595 60.4291C703.595 59.0876 702.507 58 701.166 58H665.929C664.586 58 663.498 59.0876 663.498 60.4291V71.3597H652.562C651.22 71.3597 650.132 72.4472 650.132 73.7887V82.2903C650.132 83.6318 649.044 84.7193 647.702 84.7193H639.196C637.855 84.7193 636.767 85.8067 636.767 87.1482V122.369C636.767 123.71 637.855 124.798 639.196 124.798H647.702C649.044 124.798 650.132 125.885 650.132 127.227V135.729C650.132 137.07 651.22 138.157 652.562 138.157H663.498V149.088C663.498 150.43 664.586 151.518 665.929 151.518H701.166C702.507 151.518 703.595 150.43 703.595 149.088V138.157H714.531C715.874 138.157 716.962 137.07 716.962 135.729V127.227C716.962 125.885 715.874 124.798 714.531 124.798H706.026C704.683 124.798 703.595 125.885 703.595 127.227V138.157H663.498V113.867C663.498 112.526 662.41 111.439 661.068 111.439H652.562C651.22 111.439 650.132 110.351 650.132 109.009V100.508C650.132 99.1664 651.22 98.0788 652.562 98.0788H701.166C702.507 98.0788 703.595 96.9914 703.595 95.6498V84.7193H714.531C715.874 84.7193 716.962 83.6318 716.962 82.2903V73.7887C716.962 72.4472 715.874 71.3597 714.531 71.3597H703.595V60.4291ZM703.595 71.3597V84.7193H665.929C664.586 84.7193 663.498 83.6318 663.498 82.2903V71.3597H703.595Z" fill="#01100B"/>
<path d="M464.588 55.668C463.245 55.668 462.157 56.7555 462.157 58.0971V66.5986C462.157 67.9401 463.245 69.0277 464.588 69.0277H473.093C474.436 69.0277 475.524 70.1151 475.524 71.4566V133.397C475.524 134.738 474.436 135.825 473.093 135.825H464.588C463.245 135.825 462.157 136.913 462.157 138.255V146.756C462.157 148.098 463.245 149.186 464.588 149.186H499.825C501.167 149.186 502.255 148.098 502.255 146.756V138.255C502.255 136.913 501.167 135.825 499.825 135.825H491.319C489.977 135.825 488.889 134.738 488.889 133.397V84.8162C488.889 83.4747 489.977 82.3872 491.319 82.3872H499.825C501.167 82.3872 502.255 81.2997 502.255 79.9582V69.0277H513.191C514.534 69.0277 515.622 70.1151 515.622 71.4566V79.9582C515.622 81.2997 516.709 82.3872 518.051 82.3872H526.557C527.899 82.3872 528.987 83.4747 528.987 84.8162V133.397C528.987 134.738 527.899 135.825 526.557 135.825H518.051C516.709 135.825 515.622 136.913 515.622 138.255V146.756C515.622 148.098 516.709 149.186 518.051 149.186H553.288C554.631 149.186 555.719 148.098 555.719 146.756V138.255C555.719 136.913 554.631 135.825 553.288 135.825H544.783C543.441 135.825 542.353 134.738 542.353 133.397V71.4566C542.353 70.1151 541.265 69.0277 539.923 69.0277H531.417C530.075 69.0277 528.987 67.9401 528.987 66.5986V58.0971C528.987 56.7555 527.899 55.668 526.557 55.668H504.686C503.343 55.668 502.255 56.7555 502.255 58.0971V69.0277H491.319C489.977 69.0277 488.889 67.9401 488.889 66.5986V58.0971C488.889 56.7555 487.801 55.668 486.46 55.668H464.588Z" fill="#01100B"/>
<path d="M615.863 57.5195C615.863 56.1281 614.729 55 613.33 55H590.537C589.139 55 588.005 56.1281 588.005 57.5195V68.8572H576.608C575.21 68.8572 574.076 69.9851 574.076 71.3766V82.7142H562.68C561.28 82.7142 560.146 83.8422 560.146 85.2337V121.766C560.146 123.157 561.28 124.285 562.68 124.285H571.543C572.942 124.285 574.076 125.413 574.076 126.804V135.623C574.076 137.014 575.21 138.142 576.608 138.142H588.005V149.48C588.005 150.872 589.139 152 590.537 152H627.26C628.658 152 629.792 150.872 629.792 149.48V126.804C629.792 125.413 628.658 124.285 627.26 124.285H618.395C616.997 124.285 615.863 125.413 615.863 126.804V135.623C615.863 137.014 614.729 138.142 613.33 138.142H588.005V112.948C588.005 111.557 586.871 110.429 585.473 110.429H576.608C575.21 110.429 574.076 109.3 574.076 107.909V82.7142H585.473C586.871 82.7142 588.005 81.5863 588.005 80.1948V68.8572H615.863V80.1948C615.863 81.5863 616.997 82.7142 618.395 82.7142H627.26C628.658 82.7142 629.792 81.5863 629.792 80.1948V71.3766C629.792 69.9851 628.658 68.8572 627.26 68.8572H615.863V57.5195Z" fill="#01100B"/>
<path d="M384.044 61.3637C384.044 60.0583 385.313 59 386.878 59H427.972C429.537 59 430.806 60.0583 430.806 61.3637V72H384.044V61.3637Z" fill="#01100B"/>
<path d="M387.46 75V85.9306C387.46 87.2721 386.372 88.3596 385.03 88.3596H376.525C375.183 88.3596 374.095 87.2721 374.095 85.9306V77.429C374.095 76.0875 375.183 75 376.525 75H387.46Z" fill="#01100B"/>
<path fill-rule="evenodd" clip-rule="evenodd" d="M443.74 138.666V74.4242C443.74 73.0853 442.66 72 441.328 72H430.475V82.9091C430.475 84.2479 429.395 85.3333 428.063 85.3333H419.621C418.289 85.3333 417.209 86.4186 417.209 87.7575V98.6665H379.824C378.492 98.6665 377.412 99.752 377.412 101.091V112H366.558C365.225 112 364.146 113.085 364.146 114.424V136.242C364.146 137.581 365.225 138.666 366.558 138.666H377.412V149.575C377.412 150.915 378.492 152 379.824 152H414.797C416.129 152 417.209 150.915 417.209 149.575V138.666H443.74ZM428.063 98.6665C429.395 98.6665 430.475 99.752 430.475 101.091V122.909C430.475 124.248 429.395 125.333 428.063 125.333H419.621C418.289 125.333 417.209 126.418 417.209 127.757V138.666H377.412V112H414.797C416.129 112 417.209 110.914 417.209 109.576V98.6665H428.063Z" fill="#01100B"/>
<path d="M443.74 139H455.136C456.536 139 457.669 140.058 457.669 141.364V149.636C457.669 150.942 456.536 152 455.136 152H446.273C444.874 152 443.74 150.942 443.74 149.636V139Z" fill="#01100B"/>
<path fill-rule="evenodd" clip-rule="evenodd" d="M348.367 2.51239C348.367 1.12483 347.245 0 345.861 0H323.301C321.917 0 320.794 1.12483 320.794 2.51239V11.3058C320.794 12.6934 321.917 13.8181 323.301 13.8181H332.075C333.459 13.8181 334.581 14.9429 334.581 16.3305V66.5783C334.581 67.9659 333.459 69.0907 332.075 69.0907H320.794V57.7849C320.794 56.3974 319.672 55.2726 318.287 55.2726H295.727C294.343 55.2726 293.22 56.3974 293.22 57.7849V69.0907H281.94C280.556 69.0907 279.434 70.2156 279.434 71.6031V82.9088H268.154C266.769 82.9088 265.646 84.0337 265.646 85.4212V121.851C265.646 123.239 266.769 124.363 268.154 124.363H276.927C278.312 124.363 279.434 125.488 279.434 126.875V135.669C279.434 137.056 280.556 138.181 281.94 138.181H293.22V149.487C293.22 150.875 294.343 152 295.727 152H318.287C319.672 152 320.794 150.875 320.794 149.487V138.181H348.367V149.487C348.367 150.875 349.49 152 350.875 152H359.647C361.033 152 362.155 150.875 362.155 149.487V140.694C362.155 139.306 361.033 138.181 359.647 138.181H348.367V2.51239ZM320.794 138.181H293.22V113.058C293.22 111.67 292.098 110.546 290.714 110.546H281.94C280.556 110.546 279.434 109.42 279.434 108.033V82.9088H290.714C292.098 82.9088 293.22 81.784 293.22 80.3964V69.0907H320.794V80.3964C320.794 81.784 321.917 82.9088 323.301 82.9088H332.075C333.459 82.9088 334.581 84.0337 334.581 85.4212V121.851C334.581 123.239 333.459 124.363 332.075 124.363H323.301C321.917 124.363 320.794 125.488 320.794 126.875V138.181Z" fill="#01100B"/>
</g>
</svg>