<svg width="719" height="152" viewBox="0 0 719 152" fill="none" xmlns="http://www.w3.org/2000/svg">
<g clip-path="url(#clip0_571_2)">
<mask id="mask0_571_2" style="mask-type:luminance" maskUnits="userSpaceOnUse" x="0" y="0" width="719" height="152">
<path d="M718.647 0H0V152H718.647V0Z" fill="white"/>
</mask>
<g mask="url(#mask0_571_2)">
<path d="M5.61334 17.4443C4.2558 17.4443 3.15527 18.5448 3.15527 19.9024V28.2455C3.15527 29.603 4.2558 30.7035 5.61334 30.7035H13.9565C15.314 30.7035 16.4145 31.804 16.4145 33.1616V41.5047C16.4145 42.8622 17.5151 43.9627 18.8726 43.9627H27.2157C28.5733 43.9627 29.6737 45.0633 29.6737 46.4208V81.2824C29.6737 82.6399 30.7743 83.7405 32.1318 83.7405H40.475C41.8325 83.7405 42.9331 84.8409 42.9331 86.1985V107.801C42.9331 109.158 44.0335 110.259 45.3911 110.259H53.7342C55.0917 110.259 56.1923 111.359 56.1923 112.717V134.32C56.1923 135.677 57.2927 136.778 58.6503 136.778H66.9934C68.351 136.778 69.4515 137.878 69.4515 139.235V147.578C69.4515 148.936 70.552 150.036 71.9095 150.036H80.2527C81.6102 150.036 82.7108 148.936 82.7108 147.578V123.518H93.5119C94.8694 123.518 95.97 122.418 95.97 121.06V96.9997H106.771C108.129 96.9997 109.229 95.8991 109.229 94.5416V57.222H120.03C121.388 57.222 122.489 56.1215 122.489 54.7639V33.1616C122.489 31.804 123.589 30.7035 124.947 30.7035H133.29C134.647 30.7035 135.748 29.603 135.748 28.2455V19.9024C135.748 18.5448 134.647 17.4443 133.29 17.4443H98.428C97.0705 17.4443 95.97 18.5448 95.97 19.9024V28.2455C95.97 29.603 97.0705 30.7035 98.428 30.7035H106.771C108.129 30.7035 109.229 31.804 109.229 33.1616V57.222H98.428C97.0705 57.222 95.97 58.3225 95.97 59.68V96.9997H85.1688C83.8112 96.9997 82.7108 98.1002 82.7108 99.4577V123.518H71.9095C70.552 123.518 69.4515 122.418 69.4515 121.06V99.4577C69.4515 98.1002 68.351 96.9997 66.9934 96.9997H58.6503C57.2927 96.9997 56.1923 95.8991 56.1923 94.5416V59.68C56.1923 58.3225 55.0917 57.222 53.7342 57.222H45.3911C44.0336 57.222 42.9331 56.1215 42.9331 54.7639V33.1616C42.9331 31.804 44.0335 30.7035 45.3911 30.7035H53.7342C55.0917 30.7035 56.1923 29.603 56.1923 28.2455V19.9024C56.1923 18.5448 55.0917 17.4443 53.7342 17.4443H5.61334Z" fill="#01100B"/>
<path fill-rule="evenodd" clip-rule="evenodd" d="M230.524 72.0277C229.182 72.0277 228.094 70.9401 228.094 69.5986V61.0971C228.094 59.7555 227.007 58.668 225.666 58.668H203.805C202.463 58.668 201.376 59.7555 201.376 61.0971V69.5986C201.376 70.9401 202.463 72.0277 203.805 72.0277H212.307C213.648 72.0277 214.735 73.1151 214.735 74.4566V136.397C214.735 137.738 213.648 138.825 212.307 138.825H203.805C202.463 138.825 201.376 139.913 201.376 141.255V149.756C201.376 151.098 202.463 152.186 203.805 152.186H239.025C240.367 152.186 241.455 151.098 241.455 149.756V141.255C241.455 139.913 240.367 138.825 239.025 138.825H230.524C229.182 138.825 228.094 137.738 228.094 136.397V87.8162C228.094 86.4747 229.182 85.3872 230.524 85.3872H239.025C240.367 85.3872 241.455 84.2997 241.455 82.9582V72.0277H265.745C267.086 72.0277 268.173 70.9401 268.173 69.5986V61.0971C268.173 59.7555 267.086 58.668 265.745 58.668H243.883C242.542 58.668 241.455 59.7555 241.455 61.0971V72.0277H230.524Z" fill="#01100B"/>
<path fill-rule="evenodd" clip-rule="evenodd" d="M183.158 61.0971C183.158 59.7555 182.07 58.668 180.728 58.668H145.508C144.166 58.668 143.079 59.7555 143.079 61.0971V72.0277H132.148C130.806 72.0277 129.719 73.1151 129.719 74.4566V82.9582C129.719 84.2997 128.631 85.3872 127.29 85.3872H118.788C117.447 85.3872 116.359 86.4747 116.359 87.8162V123.037C116.359 124.378 117.447 125.466 118.788 125.466H127.29C128.631 125.466 129.719 126.553 129.719 127.895V136.397C129.719 137.738 130.806 138.825 132.148 138.825H143.079V149.756C143.079 151.098 144.166 152.186 145.508 152.186H180.728C182.07 152.186 183.158 151.098 183.158 149.756V138.825H194.088C195.43 138.825 196.517 137.738 196.517 136.397V127.895C196.517 126.553 195.43 125.466 194.088 125.466H185.586C184.245 125.466 183.158 126.553 183.158 127.895V138.825H143.079V114.535C143.079 113.194 141.991 112.107 140.649 112.107H132.148C130.806 112.107 129.719 111.019 129.719 109.677V101.176C129.719 99.8344 130.806 98.7468 132.148 98.7468H180.728C182.07 98.7468 183.158 97.6593 183.158 96.3178V85.3872H194.088C195.43 85.3872 196.517 84.2997 196.517 82.9582V74.4566C196.517 73.1151 195.43 72.0277 194.088 72.0277H183.158V61.0971ZM183.158 72.0277V85.3872H145.508C144.166 85.3872 143.079 84.2997 143.079 82.9582V72.0277H183.158Z" fill="#01100B"/>
<path fill-rule="evenodd" clip-rule="evenodd" d="M701.753 61.0971C701.753 59.7555 700.666 58.668 699.325 58.668H664.104C662.762 58.668 661.675 59.7555 661.675 61.0971V72.0277H650.744C649.403 72.0277 648.315 73.1151 648.315 74.4566V82.9582C648.315 84.2997 647.228 85.3872 645.887 85.3872H637.385C636.044 85.3872 634.956 86.4747 634.956 87.8162V123.037C634.956 124.378 636.044 125.466 637.385 125.466H645.887C647.228 125.466 648.315 126.553 648.315 127.895V136.397C648.315 137.738 649.403 138.825 650.744 138.825H661.675V149.756C661.675 151.098 662.762 152.186 664.104 152.186H699.325C700.666 152.186 701.753 151.098 701.753 149.756V138.825H712.684C714.026 138.825 715.114 137.738 715.114 136.397V127.895C715.114 126.553 714.026 125.466 712.684 125.466H704.183C702.841 125.466 701.753 126.553 701.753 127.895V138.825H661.675V114.535C661.675 113.194 660.587 112.107 659.246 112.107H650.744C649.403 112.107 648.315 111.019 648.315 109.677V101.176C648.315 99.8344 649.403 98.7468 650.744 98.7468H699.325C700.666 98.7468 701.753 97.6593 701.753 96.3178V85.3872H712.684C714.026 85.3872 715.114 84.2997 715.114 82.9582V74.4566C715.114 73.1151 714.026 72.0277 712.684 72.0277H701.753V61.0971ZM701.753 72.0277V85.3872H664.104C662.762 85.3872 661.675 84.2997 661.675 82.9582V72.0277H701.753Z" fill="#01100B"/>
<path d="M467.354 58.668C466.011 58.668 464.924 59.7555 464.924 61.0971V69.5986C464.924 70.9401 466.011 72.0277 467.354 72.0277H475.854C477.197 72.0277 478.284 73.1151 478.284 74.4566V136.397C478.284 137.738 477.197 138.825 475.854 138.825H467.354C466.011 138.825 464.924 139.913 464.924 141.255V149.756C464.924 151.098 466.011 152.186 467.354 152.186H502.574C503.915 152.186 505.003 151.098 505.003 149.756V141.255C505.003 139.913 503.915 138.825 502.574 138.825H494.072C492.731 138.825 491.643 137.738 491.643 136.397V87.8162C491.643 86.4747 492.731 85.3872 494.072 85.3872H502.574C503.915 85.3872 505.003 84.2997 505.003 82.9582V72.0277H515.933C517.276 72.0277 518.363 73.1151 518.363 74.4566V82.9582C518.363 84.2997 519.45 85.3872 520.792 85.3872H529.294C530.635 85.3872 531.722 86.4747 531.722 87.8162V136.397C531.722 137.738 530.635 138.825 529.294 138.825H520.792C519.45 138.825 518.363 139.913 518.363 141.255V149.756C518.363 151.098 519.45 152.186 520.792 152.186H556.012C557.354 152.186 558.442 151.098 558.442 149.756V141.255C558.442 139.913 557.354 138.825 556.012 138.825H547.511C546.169 138.825 545.081 137.738 545.081 136.397V74.4566C545.081 73.1151 543.994 72.0277 542.653 72.0277H534.151C532.81 72.0277 531.722 70.9401 531.722 69.5986V61.0971C531.722 59.7555 530.635 58.668 529.294 58.668H507.432C506.09 58.668 505.003 59.7555 505.003 61.0971V72.0277H494.072C492.731 72.0277 491.643 70.9401 491.643 69.5986V61.0971C491.643 59.7555 490.556 58.668 489.215 58.668H467.354Z" fill="#01100B"/>
<path d="M616.738 61.0971C616.738 59.7555 615.651 58.668 614.308 58.668H592.447C591.106 58.668 590.018 59.7555 590.018 61.0971V72.0277H579.088C577.747 72.0277 576.659 73.1151 576.659 74.4566V85.3872H565.729C564.386 85.3872 563.299 86.4747 563.299 87.8162V123.037C563.299 124.378 564.386 125.466 565.729 125.466H574.229C575.572 125.466 576.659 126.553 576.659 127.895V136.397C576.659 137.738 577.747 138.825 579.088 138.825H590.018V149.756C590.018 151.098 591.106 152.186 592.447 152.186H627.669C629.01 152.186 630.097 151.098 630.097 149.756V127.895C630.097 126.553 629.01 125.466 627.669 125.466H619.167C617.826 125.466 616.738 126.553 616.738 127.895V136.397C616.738 137.738 615.651 138.825 614.308 138.825H590.018V114.535C590.018 113.194 588.931 112.107 587.59 112.107H579.088C577.747 112.107 576.659 111.019 576.659 109.677V85.3872H587.59C588.931 85.3872 590.018 84.2997 590.018 82.9582V72.0277H616.738V82.9582C616.738 84.2997 617.826 85.3872 619.167 85.3872H627.669C629.01 85.3872 630.097 84.2997 630.097 82.9582V74.4566C630.097 73.1151 629.01 72.0277 627.669 72.0277H616.738V61.0971Z" fill="#01100B"/>
<path d="M393.268 61.0971C393.268 59.7555 394.355 58.668 395.696 58.668H430.918C432.259 58.668 433.346 59.7555 433.346 61.0971V72.0277H393.268V61.0971Z" fill="#01100B"/>
<path d="M393.268 72.0278V82.9584C393.268 84.2999 392.181 85.3874 390.84 85.3874H382.338C380.997 85.3874 379.909 84.2999 379.909 82.9584V74.4568C379.909 73.1153 380.997 72.0278 382.338 72.0278H393.268Z" fill="#01100B"/>
<path fill-rule="evenodd" clip-rule="evenodd" d="M446.706 138.825V74.4568C446.706 73.1153 445.619 72.0278 444.278 72.0278H433.347V82.9584C433.347 84.2999 432.26 85.3874 430.919 85.3874H422.417C421.075 85.3874 419.988 86.4749 419.988 87.8164V98.747H382.338C380.997 98.747 379.909 99.8346 379.909 101.176V112.107H368.979C367.636 112.107 366.549 113.194 366.549 114.536V136.397C366.549 137.738 367.636 138.825 368.979 138.825H379.909V149.756C379.909 151.098 380.997 152.186 382.338 152.186H417.558C418.901 152.186 419.988 151.098 419.988 149.756V138.825H446.706ZM430.919 98.747C432.26 98.747 433.347 99.8346 433.347 101.176V123.037C433.347 124.379 432.26 125.466 430.919 125.466H422.417C421.075 125.466 419.988 126.554 419.988 127.895V138.825H379.909V112.107H417.558C418.901 112.107 419.988 111.019 419.988 109.678V98.747H430.919Z" fill="#01100B"/>
<path d="M446.706 138.825H457.637C458.979 138.825 460.066 139.913 460.066 141.255V149.756C460.066 151.098 458.979 152.186 457.637 152.186H449.136C447.794 152.186 446.706 151.098 446.706 149.756V138.825Z" fill="#01100B"/>
<path fill-rule="evenodd" clip-rule="evenodd" d="M348.33 7.65851C348.33 6.317 347.243 5.22949 345.902 5.22949H324.041C322.699 5.22949 321.612 6.317 321.612 7.65851V16.1601C321.612 17.5016 322.699 18.5891 324.041 18.5891H332.543C333.884 18.5891 334.971 19.6766 334.971 21.0181V69.5985C334.971 70.94 333.884 72.0275 332.543 72.0275H321.612V61.0969C321.612 59.7554 320.525 58.6679 319.182 58.6679H297.321C295.98 58.6679 294.892 59.7554 294.892 61.0969V72.0275H283.962C282.621 72.0275 281.533 73.1151 281.533 74.4566V85.3871H270.603C269.26 85.3871 268.173 86.4747 268.173 87.8162V123.037C268.173 124.379 269.26 125.466 270.603 125.466H279.103C280.446 125.466 281.533 126.553 281.533 127.895V136.397C281.533 137.738 282.621 138.825 283.962 138.825H294.892V149.756C294.892 151.098 295.98 152.186 297.321 152.186H319.182C320.525 152.186 321.612 151.098 321.612 149.756V138.825H348.33V149.756C348.33 151.098 349.418 152.186 350.76 152.186H359.261C360.603 152.186 361.691 151.098 361.691 149.756V141.255C361.691 139.913 360.603 138.825 359.261 138.825H348.33V7.65851ZM321.612 138.825H294.892V114.535C294.892 113.194 293.805 112.107 292.464 112.107H283.962C282.621 112.107 281.533 111.019 281.533 109.677V85.3871H292.464C293.805 85.3871 294.892 84.2996 294.892 82.9581V72.0275H321.612V82.9581C321.612 84.2996 322.699 85.3871 324.041 85.3871H332.543C333.884 85.3871 334.971 86.4747 334.971 87.8162V123.037C334.971 124.379 333.884 125.466 332.543 125.466H324.041C322.699 125.466 321.612 126.553 321.612 127.895V138.825Z" fill="#01100B"/>
</g>
</g>
<defs>
<clipPath id="clip0_571_2">
<rect width="718.647" height="152" fill="white"/>
</clipPath>
</defs>
</svg>
