<svg width="644" height="137" viewBox="0 0 644 137" fill="none" xmlns="http://www.w3.org/2000/svg">
<path d="M173.444 117.227L166.833 112.582C160.044 121.872 153.969 125.446 144.678 125.446C130.385 125.446 117.7 113.654 117.7 90.6054V90.0693H173.087V84.352C173.087 64.5198 162.903 48.6184 141.105 48.6184C120.916 48.6184 102.513 67.1999 102.513 93.2854C102.513 120.086 120.916 136.166 141.284 136.166C154.505 136.166 167.369 129.376 173.444 117.227ZM140.39 57.3731C153.076 57.3731 157.9 67.0212 158.078 82.208H118.236C120.558 65.9492 129.849 57.3731 140.39 57.3731Z" fill="#01100B"/>
<path d="M220.534 126.696C204.454 126.696 203.56 126.339 203.56 122.944V80.2426C208.384 73.0959 216.067 64.1625 221.07 63.8052C225.179 63.8052 227.323 68.9865 232.326 68.9865C237.686 68.9865 241.974 65.5918 241.974 59.3385C241.974 53.9784 238.043 48.6184 230.182 48.6184C219.998 48.6184 208.92 63.2692 203.56 72.3812V48.6184H201.059L175.867 55.9438V59.8745L184.085 63.6265C187.301 65.0558 188.195 65.5918 188.195 69.3439V123.302C188.195 126.339 187.301 126.696 176.581 126.696V134.379H220.534V126.696Z" fill="#01100B"/>
<path d="M325.41 132.414V128.483L317.191 124.731C313.975 123.302 313.082 122.766 313.082 119.014V0.378021H310.581L285.388 7.70341V11.6341L293.607 15.3861C296.823 16.8155 297.717 17.3515 297.717 21.1035V56.3011C292.893 51.6557 284.674 48.6184 277.17 48.6184C255.372 48.6184 238.041 66.6638 238.041 95.6081C238.041 117.763 251.442 136.166 271.452 136.166C282.887 136.166 293.071 127.768 297.717 120.264V136.166H300.218L325.41 132.414ZM253.943 92.0347C253.943 71.4879 264.127 57.1944 279.492 57.1944C286.818 57.1944 293.786 60.0531 297.717 66.8425V114.011C292.535 120.086 286.103 124.91 277.348 124.91C262.698 124.91 253.943 110.438 253.943 92.0347Z" fill="#01100B"/>
<path d="M393.225 136.166C399.3 136.166 405.553 132.235 409.305 127.768L406.625 122.23C404.124 124.195 401.98 125.446 398.585 125.446C395.191 125.446 391.26 122.766 391.26 116.334V71.6665C391.26 54.1571 380.361 48.6184 364.46 48.6184C347.308 48.6184 330.155 58.0878 330.155 70.4159C330.155 76.4906 334.622 80.2426 339.446 80.2426C344.628 80.2426 348.38 76.6692 348.38 71.6665C348.38 67.9145 346.772 66.8425 346.772 64.5198C346.772 60.5891 353.025 56.8371 360.708 56.8371C370.713 56.8371 375.895 62.1971 375.895 72.2026V83.28C342.841 90.0694 327.475 100.968 327.475 116.691C327.475 128.84 336.23 136.166 348.201 136.166C358.921 136.166 370.534 128.84 376.609 120.8C377.86 129.912 384.828 136.166 393.225 136.166ZM375.895 90.9627V114.726C369.284 121.515 362.316 125.446 354.097 125.446C347.308 125.446 342.662 120.979 342.662 113.654C342.662 102.04 353.74 95.9654 375.895 90.9627Z" fill="#01100B"/>
<path d="M450.835 126.696C440.115 126.696 439.221 126.339 439.221 123.302V70.7732C444.224 65.4132 452.264 60.2318 460.84 60.2318C471.918 60.2318 477.099 67.3785 477.099 79.8853V123.302C477.099 126.339 476.206 126.696 465.486 126.696V134.379H504.078V126.696C493.358 126.696 492.464 126.339 492.464 123.302V78.4559C492.464 62.5545 485.675 48.6184 468.344 48.6184C456.195 48.6184 444.581 57.5518 439.221 64.5198V48.6184H436.72L411.528 55.9438V59.8745L419.746 63.6265C422.963 65.0558 423.856 65.5918 423.856 69.3439V123.302C423.856 126.339 422.963 126.696 412.242 126.696V134.379H450.835V126.696Z" fill="#01100B"/>
<path d="M540.959 57.9091C554.716 57.9091 550.964 73.9892 561.327 73.9892C565.436 73.9892 569.367 71.1305 569.367 65.5918C569.367 57.3731 558.468 48.6184 543.103 48.6184C521.841 48.6184 502.009 68.4505 502.009 94.536C502.009 121.336 519.876 136.166 539.351 136.166C554.359 136.166 565.436 127.59 571.689 114.904L564.721 110.616C558.825 120.622 552.215 125.446 542.209 125.446C529.345 125.446 517.553 113.832 517.553 91.4987C517.553 71.4879 528.273 57.9091 540.959 57.9091Z" fill="#01100B"/>
<path d="M643.257 117.227L636.646 112.582C629.857 121.872 623.782 125.446 614.491 125.446C600.198 125.446 587.512 113.654 587.512 90.6054V90.0693H642.899V84.352C642.899 64.5198 632.715 48.6184 610.918 48.6184C590.728 48.6184 572.326 67.1999 572.326 93.2854C572.326 120.086 590.728 136.166 611.097 136.166C624.318 136.166 637.182 129.376 643.257 117.227ZM610.203 57.3731C622.889 57.3731 627.713 67.0212 627.891 82.208H588.048C590.371 65.9492 599.662 57.3731 610.203 57.3731Z" fill="#01100B"/>
<path d="M65.8604 117.489L33.9263 30.9634C33.2126 29.0009 33.0342 28.2873 33.0342 27.5737C33.0342 24.8977 36.6023 24.1841 49.6257 24.1841V16.3343H0.743256V24.1841C11.6259 24.1841 14.3019 24.7193 16.0859 29.5362L36.6023 82.2543L57.1187 134.972H69.2501L110.283 29.5362C112.067 24.7193 114.743 24.1841 125.626 24.1841V16.3343H82.9871V24.1841C96.0106 24.1841 99.5786 24.8977 99.5786 27.5737C99.5786 28.2873 99.4002 29.0009 98.6866 30.9634L66.574 117.489H65.8604Z" fill="#01100B"/>
</svg>
