<svg width="638" height="133" viewBox="0 0 638 133" fill="none" xmlns="http://www.w3.org/2000/svg">
<path d="M3.02225 11.608C1.80761 11.608 0.822937 12.5927 0.822937 13.8073V21.2722C0.822937 22.4869 1.80761 23.4715 3.02225 23.4715H10.4872C11.7018 23.4715 12.6865 24.4562 12.6865 25.6709V33.1358C12.6865 34.3504 13.6711 35.3351 14.8858 35.3351H22.3507C23.5653 35.3351 24.55 36.3197 24.55 37.5344V68.7263C24.55 69.941 25.5347 70.9256 26.7493 70.9256H34.2142C35.4289 70.9256 36.4135 71.9103 36.4135 73.125L36.4136 92.4534C36.4136 93.668 37.3982 94.6527 38.6129 94.6527H46.0778C47.2924 94.6527 48.2771 95.6374 48.2771 96.852V116.18C48.2771 117.395 49.2617 118.38 50.4764 118.38H57.9413C59.1559 118.38 60.1406 119.364 60.1406 120.579V128.044C60.1406 129.259 61.1253 130.243 62.3399 130.243H69.8048C71.0195 130.243 72.0042 129.259 72.0042 128.044V106.516H81.6684C82.883 106.516 83.8677 105.532 83.8677 104.317V82.7892H93.5319C94.7465 82.7892 95.7312 81.8045 95.7312 80.5899V47.1986L105.395 47.1986C106.61 47.1986 107.595 46.2139 107.595 44.9993V25.6709C107.595 24.4562 108.579 23.4715 109.794 23.4715H117.259C118.474 23.4715 119.458 22.4869 119.458 21.2722V13.8073C119.458 12.5927 118.474 11.608 117.259 11.608H86.067C84.8523 11.608 83.8677 12.5927 83.8677 13.8073V21.2722C83.8677 22.4869 84.8523 23.4715 86.067 23.4715H93.5319C94.7465 23.4715 95.7312 24.4562 95.7312 25.6709V47.1986H86.067C84.8523 47.1986 83.8677 48.1833 83.8677 49.3979V82.7892H74.2034C72.9888 82.7892 72.0042 83.7738 72.0042 84.9885V106.516H62.3399C61.1253 106.516 60.1406 105.532 60.1406 104.317V84.9885C60.1406 83.7738 59.1559 82.7892 57.9413 82.7892H50.4764C49.2617 82.7892 48.2771 81.8045 48.2771 80.5899V49.3979C48.2771 48.1833 47.2924 47.1986 46.0778 47.1986L38.6129 47.1986C37.3982 47.1986 36.4135 46.2139 36.4135 44.9993V25.6709C36.4135 24.4562 37.3982 23.4715 38.6129 23.4715H46.0778C47.2924 23.4715 48.2771 22.4869 48.2771 21.2722V13.8073C48.2771 12.5927 47.2924 11.608 46.0778 11.608H3.02225Z" fill="#01100B"/>
<path fill-rule="evenodd" clip-rule="evenodd" d="M204.258 60.4457C203.057 60.4457 202.084 59.4726 202.084 58.2724V50.6657C202.084 49.4654 201.111 48.4924 199.911 48.4924H180.351C179.151 48.4924 178.178 49.4654 178.178 50.6657V58.2724C178.178 59.4726 179.151 60.4457 180.351 60.4457H187.958C189.158 60.4457 190.131 61.4187 190.131 62.619V118.039C190.131 119.239 189.158 120.212 187.958 120.212H180.351C179.151 120.212 178.178 121.185 178.178 122.386V129.992C178.178 131.193 179.151 132.166 180.351 132.166H211.864C213.065 132.166 214.038 131.193 214.038 129.992V122.386C214.038 121.185 213.065 120.212 211.864 120.212H204.258C203.057 120.212 202.084 119.239 202.084 118.039V74.5723C202.084 73.372 203.057 72.399 204.258 72.399H211.864C213.065 72.399 214.038 71.426 214.038 70.2257V60.4457H235.771C236.971 60.4457 237.944 59.4726 237.944 58.2724V50.6657C237.944 49.4654 236.971 48.4924 235.771 48.4924H216.211C215.011 48.4924 214.038 49.4654 214.038 50.6657V60.4457H204.258Z" fill="#01100B"/>
<path fill-rule="evenodd" clip-rule="evenodd" d="M161.878 50.6657C161.878 49.4654 160.905 48.4924 159.704 48.4924H128.191C126.991 48.4924 126.018 49.4654 126.018 50.6657V60.4457H116.238C115.037 60.4457 114.064 61.4187 114.064 62.619V70.2257C114.064 71.426 113.091 72.399 111.891 72.399H104.284C103.084 72.399 102.111 73.372 102.111 74.5723V106.086C102.111 107.286 103.084 108.259 104.284 108.259H111.891C113.091 108.259 114.064 109.232 114.064 110.432V118.039C114.064 119.239 115.037 120.212 116.238 120.212H126.018V129.992C126.018 131.193 126.991 132.166 128.191 132.166H159.704C160.905 132.166 161.878 131.193 161.878 129.992V120.212H171.658C172.858 120.212 173.831 119.239 173.831 118.039V110.432C173.831 109.232 172.858 108.259 171.658 108.259H164.051C162.851 108.259 161.878 109.232 161.878 110.432V120.212H126.018V98.479C126.018 97.2787 125.045 96.3057 123.844 96.3057H116.238C115.037 96.3057 114.064 95.3327 114.064 94.1324V86.5257C114.064 85.3254 115.037 84.3524 116.238 84.3524H159.704C160.905 84.3524 161.878 83.3793 161.878 82.179V72.399H171.658C172.858 72.399 173.831 71.426 173.831 70.2257V62.619C173.831 61.4187 172.858 60.4457 171.658 60.4457H161.878V50.6657ZM161.878 60.4457V72.399H128.191C126.991 72.399 126.018 71.426 126.018 70.2257V60.4457H161.878Z" fill="#01100B"/>
<path fill-rule="evenodd" clip-rule="evenodd" d="M625.884 50.6657C625.884 49.4654 624.911 48.4924 623.711 48.4924H592.198C590.997 48.4924 590.024 49.4654 590.024 50.6657V60.4457H580.244C579.044 60.4457 578.071 61.4187 578.071 62.619V70.2257C578.071 71.426 577.098 72.399 575.898 72.399H568.291C567.091 72.399 566.118 73.372 566.118 74.5723V106.086C566.118 107.286 567.091 108.259 568.291 108.259H575.898C577.098 108.259 578.071 109.232 578.071 110.432V118.039C578.071 119.239 579.044 120.212 580.244 120.212H590.024V129.992C590.024 131.193 590.997 132.166 592.198 132.166H623.711C624.911 132.166 625.884 131.193 625.884 129.992V120.212H635.664C636.865 120.212 637.838 119.239 637.838 118.039V110.432C637.838 109.232 636.865 108.259 635.664 108.259H628.058C626.857 108.259 625.884 109.232 625.884 110.432V120.212H590.024V98.479C590.024 97.2787 589.051 96.3057 587.851 96.3057H580.244C579.044 96.3057 578.071 95.3327 578.071 94.1324V86.5257C578.071 85.3254 579.044 84.3524 580.244 84.3524H623.711C624.911 84.3524 625.884 83.3793 625.884 82.179V72.399H635.664C636.865 72.399 637.838 71.426 637.838 70.2257V62.619C637.838 61.4187 636.865 60.4457 635.664 60.4457H625.884V50.6657ZM625.884 60.4457V72.399H592.198C590.997 72.399 590.024 71.426 590.024 70.2257V60.4457H625.884Z" fill="#01100B"/>
<path d="M416.158 48.4924C414.957 48.4924 413.984 49.4654 413.984 50.6657V58.2724C413.984 59.4726 414.957 60.4457 416.158 60.4457H423.764C424.965 60.4457 425.938 61.4187 425.938 62.619V118.039C425.938 119.239 424.965 120.212 423.764 120.212H416.158C414.957 120.212 413.984 121.185 413.984 122.386V129.992C413.984 131.193 414.957 132.166 416.158 132.166H447.671C448.871 132.166 449.844 131.193 449.844 129.992V122.386C449.844 121.185 448.871 120.212 447.671 120.212H440.064C438.864 120.212 437.891 119.239 437.891 118.039V74.5723C437.891 73.372 438.864 72.399 440.064 72.399H447.671C448.871 72.399 449.844 71.426 449.844 70.2257V60.4457H459.624C460.825 60.4457 461.798 61.4187 461.798 62.619V70.2257C461.798 71.426 462.771 72.399 463.971 72.399H471.578C472.778 72.399 473.751 73.372 473.751 74.5723V118.039C473.751 119.239 472.778 120.212 471.578 120.212H463.971C462.771 120.212 461.798 121.185 461.798 122.386V129.992C461.798 131.193 462.771 132.166 463.971 132.166H495.484C496.685 132.166 497.658 131.193 497.658 129.992V122.386C497.658 121.185 496.685 120.212 495.484 120.212H487.878C486.677 120.212 485.704 119.239 485.704 118.039V62.619C485.704 61.4187 484.731 60.4457 483.531 60.4457H475.924C474.724 60.4457 473.751 59.4726 473.751 58.2724V50.6657C473.751 49.4654 472.778 48.4924 471.578 48.4924H452.018C450.817 48.4924 449.844 49.4654 449.844 50.6657V60.4457H440.064C438.864 60.4457 437.891 59.4726 437.891 58.2724V50.6657C437.891 49.4654 436.918 48.4924 435.718 48.4924H416.158Z" fill="#01100B"/>
<path d="M549.818 50.6657C549.818 49.4654 548.845 48.4924 547.644 48.4924H528.084C526.884 48.4924 525.911 49.4654 525.911 50.6657V60.4457H516.131C514.931 60.4457 513.958 61.4187 513.958 62.619V72.399H504.178C502.977 72.399 502.004 73.3721 502.004 74.5724V106.086C502.004 107.286 502.977 108.259 504.178 108.259H511.784C512.985 108.259 513.958 109.232 513.958 110.432V118.039C513.958 119.239 514.931 120.212 516.131 120.212H525.911V129.992C525.911 131.193 526.884 132.166 528.084 132.166H559.598C560.798 132.166 561.771 131.193 561.771 129.992V110.432C561.771 109.232 560.798 108.259 559.598 108.259H551.991C550.791 108.259 549.818 109.232 549.818 110.432V118.039C549.818 119.239 548.845 120.212 547.644 120.212H525.911V98.479C525.911 97.2787 524.938 96.3057 523.738 96.3057H516.131C514.931 96.3057 513.958 95.3327 513.958 94.1324V72.399H523.738C524.938 72.399 525.911 71.426 525.911 70.2257V60.4457H549.818V70.2257C549.818 71.426 550.791 72.399 551.991 72.399H559.598C560.798 72.399 561.771 71.426 561.771 70.2257V62.619C561.771 61.4187 560.798 60.4457 559.598 60.4457H549.818V50.6657Z" fill="#01100B"/>
<path d="M349.871 50.6657C349.871 49.4654 350.844 48.4924 352.044 48.4924H383.558C384.758 48.4924 385.731 49.4654 385.731 50.6657V60.4457H349.871V50.6657Z" fill="#01100B"/>
<path d="M349.871 60.4457V70.2257C349.871 71.426 348.898 72.399 347.698 72.399H340.091C338.891 72.399 337.918 71.426 337.918 70.2257V62.619C337.918 61.4187 338.891 60.4457 340.091 60.4457H349.871Z" fill="#01100B"/>
<path fill-rule="evenodd" clip-rule="evenodd" d="M397.684 120.212V62.619C397.684 61.4187 396.711 60.4457 395.511 60.4457H385.731V70.2257C385.731 71.426 384.758 72.399 383.558 72.399H375.951C374.751 72.399 373.778 73.372 373.778 74.5723V84.3524H340.091C338.891 84.3524 337.918 85.3254 337.918 86.5257V96.3057H328.138C326.937 96.3057 325.964 97.2787 325.964 98.479V118.039C325.964 119.239 326.937 120.212 328.138 120.212L337.918 120.212V129.992C337.918 131.193 338.891 132.166 340.091 132.166H371.604C372.805 132.166 373.778 131.193 373.778 129.992V120.212H397.684ZM383.558 84.3524C384.758 84.3524 385.731 85.3254 385.731 86.5257V106.086C385.731 107.286 384.758 108.259 383.558 108.259H375.951C374.751 108.259 373.778 109.232 373.778 110.432V120.212H337.918V96.3057H371.604C372.805 96.3057 373.778 95.3327 373.778 94.1324V84.3524H383.558Z" fill="#01100B"/>
<path d="M397.684 120.212H407.464C408.665 120.212 409.638 121.185 409.638 122.386V129.992C409.638 131.193 408.665 132.166 407.464 132.166H399.858C398.657 132.166 397.684 131.193 397.684 129.992V120.212Z" fill="#01100B"/>
<path fill-rule="evenodd" clip-rule="evenodd" d="M309.664 2.85235C309.664 1.65205 308.691 0.679016 307.491 0.679016H287.931C286.731 0.679016 285.758 1.65205 285.758 2.85235V10.459C285.758 11.6593 286.731 12.6323 287.931 12.6323H295.538C296.738 12.6323 297.711 13.6054 297.711 14.8057V58.2723C297.711 59.4726 296.738 60.4457 295.538 60.4457H285.758V50.6657C285.758 49.4654 284.785 48.4923 283.584 48.4923H264.024C262.824 48.4923 261.851 49.4654 261.851 50.6657V60.4457H252.071C250.871 60.4457 249.898 61.4187 249.898 62.619V72.399H240.118C238.917 72.399 237.944 73.372 237.944 74.5723V106.086C237.944 107.286 238.917 108.259 240.118 108.259H247.724C248.925 108.259 249.898 109.232 249.898 110.432V118.039C249.898 119.239 250.871 120.212 252.071 120.212H261.851V129.992C261.851 131.193 262.824 132.166 264.024 132.166H283.584C284.785 132.166 285.758 131.193 285.758 129.992V120.212H309.664V129.992C309.664 131.193 310.637 132.166 311.838 132.166H319.444C320.645 132.166 321.618 131.193 321.618 129.992V122.386C321.618 121.185 320.645 120.212 319.444 120.212H309.664V2.85235ZM285.758 120.212H261.851V98.479C261.851 97.2787 260.878 96.3057 259.678 96.3057H252.071C250.871 96.3057 249.898 95.3326 249.898 94.1323V72.399H259.678C260.878 72.399 261.851 71.426 261.851 70.2257V60.4457H285.758V70.2257C285.758 71.426 286.731 72.399 287.931 72.399H295.538C296.738 72.399 297.711 73.372 297.711 74.5723V106.086C297.711 107.286 296.738 108.259 295.538 108.259H287.931C286.731 108.259 285.758 109.232 285.758 110.432V120.212Z" fill="#01100B"/>
</svg>
