<svg width="719" height="152" viewBox="0 0 719 152" fill="none" xmlns="http://www.w3.org/2000/svg">
<path d="M193.259 130.8L185.862 125.6C178.264 136 171.466 140 161.07 140C145.075 140 130.879 126.8 130.879 101V100.4H192.86V94C192.86 71.8 181.463 54 157.071 54C134.478 54 113.884 74.8 113.884 104C113.884 134 134.478 152 157.271 152C172.066 152 186.462 144.4 193.259 130.8ZM156.271 63.8C170.467 63.8 175.865 74.6 176.065 91.6H131.479C134.078 73.4 144.475 63.8 156.271 63.8Z" fill="#01100B"/>
<path d="M245.955 141.4C227.96 141.4 226.961 141 226.961 137.2V89.4C232.359 81.4 240.956 71.4 246.555 71C251.153 71 253.552 76.8 259.151 76.8C265.149 76.8 269.947 73 269.947 66C269.947 60 265.549 54 256.751 54C245.355 54 232.959 70.4 226.961 80.6V54H224.162L195.971 62.2V66.6L205.168 70.8C208.767 72.4 209.766 73 209.766 77.2V137.6C209.766 141 208.767 141.4 196.77 141.4V150H245.955V141.4Z" fill="#01100B"/>
<path d="M363.316 147.8V143.4L354.119 139.2C350.52 137.6 349.52 137 349.52 132.8V0H346.721L318.53 8.2V12.6L327.727 16.8C331.326 18.4 332.326 19 332.326 23.2V62.6C326.927 57.4 317.73 54 309.333 54C284.941 54 265.547 74.2 265.547 106.6C265.547 131.4 280.542 152 302.935 152C315.731 152 327.127 142.6 332.326 134.2V152H335.125L363.316 147.8ZM283.341 102.6C283.341 79.6 294.738 63.6 311.932 63.6C320.13 63.6 327.927 66.8 332.326 74.4V127.2C326.528 134 319.33 139.4 309.533 139.4C293.138 139.4 283.341 123.2 283.341 102.6Z" fill="#01100B"/>
<path d="M439.204 152C446.002 152 453 147.6 457.198 142.6L454.199 136.4C451.4 138.6 449.001 140 445.202 140C441.403 140 437.005 137 437.005 129.8V79.8C437.005 60.2 424.809 54 407.014 54C387.82 54 368.626 64.6 368.626 78.4C368.626 85.2 373.625 89.4 379.023 89.4C384.821 89.4 389.02 85.4 389.02 79.8C389.02 75.6 387.221 74.4 387.221 71.8C387.221 67.4 394.218 63.2 402.816 63.2C414.012 63.2 419.81 69.2 419.81 80.4V92.8C382.822 100.4 365.627 112.6 365.627 130.2C365.627 143.8 375.424 152 388.82 152C400.816 152 413.812 143.8 420.61 134.8C422.009 145 429.807 152 439.204 152ZM419.81 101.4V128C412.413 135.6 404.615 140 395.418 140C387.82 140 382.622 135 382.622 126.8C382.622 113.8 395.018 107 419.81 101.4Z" fill="#01100B"/>
<path d="M503.672 141.4C491.675 141.4 490.676 141 490.676 137.6V78.8C496.274 72.8 505.271 67 514.868 67C527.264 67 533.062 75 533.062 89V137.6C533.062 141 532.063 141.4 520.066 141.4V150H563.253V141.4C551.257 141.4 550.257 141 550.257 137.6V87.4C550.257 69.6 542.659 54 523.265 54C509.67 54 496.674 64 490.676 71.8V54H487.876L459.685 62.2V66.6L468.882 70.8C472.481 72.4 473.481 73 473.481 77.2V137.6C473.481 141 472.481 141.4 460.485 141.4V150H503.672V141.4Z" fill="#01100B"/>
<path d="M604.524 64.4C619.919 64.4 615.72 82.4 627.317 82.4C631.915 82.4 636.314 79.2 636.314 73C636.314 63.8 624.118 54 606.923 54C583.131 54 560.938 76.2 560.938 105.4C560.938 135.4 580.931 152 602.725 152C619.519 152 631.915 142.4 638.913 128.2L631.116 123.4C624.518 134.6 617.12 140 605.924 140C591.528 140 578.332 127 578.332 102C578.332 79.6 590.328 64.4 604.524 64.4Z" fill="#01100B"/>
<path d="M719 130.8L711.602 125.6C704.005 136 697.207 140 686.81 140C670.815 140 656.62 126.8 656.62 101V100.4H718.6V94C718.6 71.8 707.204 54 682.811 54C660.219 54 639.625 74.8 639.625 104C639.625 134 660.219 152 683.011 152C697.807 152 712.202 144.4 719 130.8ZM682.012 63.8C696.207 63.8 701.605 74.6 701.805 91.6H657.219C659.819 73.4 670.215 63.8 682.012 63.8Z" fill="#01100B"/>
<path d="M72.8689 131.093L37.1332 34.2371C36.3346 32.0404 36.135 31.2415 36.135 30.4427C36.135 27.4472 40.1278 26.6484 54.7016 26.6484V17.8614H0V26.6484C12.1781 26.6484 15.1727 27.2475 17.1691 32.6395L40.1278 91.6519L63.0865 150.664H76.6621L122.579 32.6395C124.576 27.2475 127.57 26.6484 139.749 26.6484V17.8614H92.0344V26.6484C106.608 26.6484 110.601 27.4472 110.601 30.4427C110.601 31.2415 110.401 32.0404 109.603 34.2371L73.6674 131.093H72.8689Z" fill="#01100B"/>
</svg>
