<svg viewBox="0 0 32 32" fill="none" xmlns="http://www.w3.org/2000/svg">
  <rect x="10.7" y="22.075" width="3.6" height="3.6" fill="currentColor" stroke="currentColor" stroke-width="0.1"/>
  <rect x="3.7" y="11.575" width="3.6" height="3.6" fill="currentColor" stroke="currentColor" stroke-width="0.1"/>
  <rect x="0.2" y="11.575" width="3.6" height="3.6" fill="currentColor" stroke="currentColor" stroke-width="0.1"/>
  <rect x="21.2" y="15.075" width="3.6" height="3.6" fill="currentColor" stroke="currentColor" stroke-width="0.1"/>
  <rect x="7.2" y="15.075" width="3.6" height="3.6" fill="currentColor" stroke="currentColor" stroke-width="0.1"/>
  <rect x="24.7" y="11.575" width="3.6" height="3.6" fill="currentColor" stroke="currentColor" stroke-width="0.1"/>
  <rect x="28.2" y="11.575" width="3.6" height="3.6" fill="currentColor" stroke="currentColor" stroke-width="0.1"/>
  <rect x="14.2" y="18.575" width="3.6" height="3.6" fill="currentColor" stroke="currentColor" stroke-width="0.1"/>
  <rect x="3.7" y="4.575" width="3.6" height="3.6" fill="currentColor" stroke="currentColor" stroke-width="0.1"/>
  <rect x="7.2" y="4.575" width="3.6" height="3.6" fill="currentColor" stroke="currentColor" stroke-width="0.1"/>
  <rect x="0.2" y="4.575" width="3.6" height="3.6" fill="currentColor" stroke="currentColor" stroke-width="0.1"/>
  <rect x="14.2" y="1.075" width="3.6" height="3.6" fill="currentColor" stroke="currentColor" stroke-width="0.1"/>
  <rect x="14.2" y="4.575" width="3.6" height="3.6" fill="currentColor" stroke="currentColor" stroke-width="0.1"/>
  <rect x="14.2" y="8.075" width="3.6" height="3.6" fill="currentColor" stroke="currentColor" stroke-width="0.1"/>
  <rect x="14.2" y="11.575" width="3.6" height="3.6" fill="currentColor" stroke="currentColor" stroke-width="0.1"/>
  <rect x="14.2" y="15.075" width="3.6" height="3.6" fill="currentColor" stroke="currentColor" stroke-width="0.1"/>
  <rect x="10.7" y="8.075" width="3.6" height="3.6" fill="currentColor" stroke="currentColor" stroke-width="0.1"/>
  <rect x="10.7" y="11.575" width="3.6" height="3.6" fill="currentColor" stroke="currentColor" stroke-width="0.1"/>
  <rect x="10.7" y="15.075" width="3.6" height="3.6" fill="currentColor" stroke="currentColor" stroke-width="0.1"/>
  <rect x="10.7" y="18.575" width="3.6" height="3.6" fill="currentColor" stroke="currentColor" stroke-width="0.1"/>
  <rect x="7.2" y="8.075" width="3.6" height="3.6" fill="currentColor" stroke="currentColor" stroke-width="0.1"/>
  <rect x="7.2" y="11.575" width="3.6" height="3.6" fill="currentColor" stroke="currentColor" stroke-width="0.1"/>
  <rect x="17.7" y="8.075" width="3.6" height="3.6" fill="currentColor" stroke="currentColor" stroke-width="0.1"/>
  <rect x="17.7" y="11.575" width="3.6" height="3.6" fill="currentColor" stroke="currentColor" stroke-width="0.1"/>
  <rect x="17.7" y="15.075" width="3.6" height="3.6" fill="currentColor" stroke="currentColor" stroke-width="0.1"/>
  <rect x="17.7" y="18.575" width="3.6" height="3.6" fill="currentColor" stroke="currentColor" stroke-width="0.1"/>
  <rect x="10.7" y="1.075" width="3.6" height="3.6" fill="currentColor" stroke="currentColor" stroke-width="0.1"/>
  <rect x="21.2" y="8.075" width="3.6" height="3.6" fill="currentColor" stroke="currentColor" stroke-width="0.1"/>
  <rect x="21.2" y="11.575" width="3.6" height="3.6" fill="currentColor" stroke="currentColor" stroke-width="0.1"/>
  <rect x="7.2" y="25.575" width="3.6" height="3.6" fill="currentColor" stroke="currentColor" stroke-width="0.1"/>
  <rect x="17.7" y="22.075" width="3.6" height="3.6" fill="currentColor" stroke="currentColor" stroke-width="0.1"/>
  <rect x="21.2" y="25.575" width="3.6" height="3.6" fill="currentColor" stroke="currentColor" stroke-width="0.1"/>
  <rect x="21.2" y="4.575" width="3.6" height="3.6" fill="currentColor" stroke="currentColor" stroke-width="0.1"/>
  <rect x="24.7" y="4.575" width="3.6" height="3.6" fill="currentColor" stroke="currentColor" stroke-width="0.1"/>
  <rect x="28.2" y="4.575" width="3.6" height="3.6" fill="currentColor" stroke="currentColor" stroke-width="0.1"/>
</svg>
