<svg viewBox="0 0 32 32" fill="none" xmlns="http://www.w3.org/2000/svg">
<path fill-rule="evenodd" clip-rule="evenodd" d="M13.0436 3.75771H9.5458V7.25547H13.0436V3.75771ZM13.0436 24.7445H9.5458V28.2423H13.0436V24.7445ZM6.048 10.7533H9.54575V14.2511H6.048V10.7533ZM9.5458 7.25547L6.048 7.25552V10.7533H9.54575L9.5458 7.25547ZM2.5502 14.2511L6.048 14.2511L6.04795 17.7489H2.5502V14.2511ZM9.54575 17.7489L6.04795 17.7489L6.048 21.2467H9.54575V17.7489ZM6.048 21.2467H9.54575L9.5458 24.7445L6.048 24.7445V21.2467Z" fill="currentColor"/>
<path fill-rule="evenodd" clip-rule="evenodd" d="M9.4458 3.65771H13.1436V7.35547H9.64575V14.3511H6.14795V17.6489H9.64575V24.6445H13.1436V28.3423H9.4458V24.8445H5.948V17.8489H2.4502V14.1511H5.948V7.15552H9.4458V3.65771ZM9.5458 7.25547H13.0436V3.75771H9.5458V7.25547ZM6.048 7.25552V10.7533H9.54575L9.5458 7.25547L6.048 7.25552ZM6.048 14.2511H9.54575V10.7533H6.048V14.2511ZM2.5502 14.2511V17.7489H6.04795L6.048 14.2511L2.5502 14.2511ZM6.048 21.2467H9.54575V17.7489L6.04795 17.7489L6.048 21.2467ZM9.5458 24.7445L9.54575 21.2467H6.048V24.7445L9.5458 24.7445ZM9.5458 28.2423H13.0436V24.7445H9.5458V28.2423Z" fill="currentColor"/>
<path fill-rule="evenodd" clip-rule="evenodd" d="M18.9564 3.75771H22.4542V7.25547H18.9564V3.75771ZM18.9564 24.7445H22.4542V28.2423H18.9564V24.7445ZM25.952 10.7533H22.4542V14.2511H25.952V10.7533ZM22.4542 7.25547L25.952 7.25552V10.7533H22.4542L22.4542 7.25547ZM29.4498 14.2511L25.952 14.2511L25.952 17.7489H29.4498V14.2511ZM22.4542 17.7489L25.952 17.7489L25.952 21.2467H22.4542V17.7489ZM25.952 21.2467H22.4542L22.4542 24.7445L25.952 24.7445V21.2467Z" fill="currentColor"/>
<path fill-rule="evenodd" clip-rule="evenodd" d="M22.5542 3.65771H18.8564V7.35547H22.3542V14.3511H25.852V17.6489H22.3542V24.6445H18.8564V28.3423H22.5542V24.8445H26.052V17.8489H29.5498V14.1511H26.052V7.15552H22.5542V3.65771ZM22.4542 7.25547H18.9564V3.75771H22.4542V7.25547ZM25.952 7.25552V10.7533H22.4542L22.4542 7.25547L25.952 7.25552ZM25.952 14.2511H22.4542V10.7533H25.952V14.2511ZM29.4498 14.2511V17.7489H25.952L25.952 14.2511L29.4498 14.2511ZM25.952 21.2467H22.4542V17.7489L25.952 17.7489L25.952 21.2467ZM22.4542 24.7445L22.4542 21.2467H25.952V24.7445L22.4542 24.7445ZM22.4542 28.2423H18.9564V24.7445H22.4542V28.2423Z" fill="currentColor"/>
</svg>
