<svg viewBox="0 0 32 32" fill="none" xmlns="http://www.w3.org/2000/svg">
  <rect x="3.7" y="10.7" width="3.6" height="3.6" fill="currentColor" stroke="currentColor" stroke-width="0.1"/>
  <rect x="24.7" y="10.7" width="3.6" height="3.6" fill="currentColor" stroke="currentColor" stroke-width="0.1"/>
  <rect x="14.2" y="21.2" width="3.6" height="3.6" fill="currentColor" stroke="currentColor" stroke-width="0.1"/>
  <rect x="3.7" y="7.2" width="3.6" height="3.6" fill="currentColor" stroke="currentColor" stroke-width="0.1"/>
  <rect x="7.2" y="7.2" width="3.6" height="3.6" fill="currentColor" stroke="currentColor" stroke-width="0.1"/>
  <rect x="0.2" y="7.2" width="3.6" height="3.6" fill="currentColor" stroke="currentColor" stroke-width="0.1"/>
  <rect x="14.2" y="3.7" width="3.6" height="3.6" fill="currentColor" stroke="currentColor" stroke-width="0.1"/>
  <rect x="14.2" y="7.2" width="3.6" height="3.6" fill="currentColor" stroke="currentColor" stroke-width="0.1"/>
  <rect x="14.2" y="10.7" width="3.6" height="3.6" fill="currentColor" stroke="currentColor" stroke-width="0.1"/>
  <rect x="14.2" y="14.2" width="3.6" height="3.6" fill="currentColor" stroke="currentColor" stroke-width="0.1"/>
  <rect x="14.2" y="17.7" width="3.6" height="3.6" fill="currentColor" stroke="currentColor" stroke-width="0.1"/>
  <rect x="10.7" y="10.7" width="3.6" height="3.6" fill="currentColor" stroke="currentColor" stroke-width="0.1"/>
  <rect x="10.7" y="14.2" width="3.6" height="3.6" fill="currentColor" stroke="currentColor" stroke-width="0.1"/>
  <rect x="10.7" y="17.7" width="3.6" height="3.6" fill="currentColor" stroke="currentColor" stroke-width="0.1"/>
  <rect x="7.2" y="10.7" width="3.6" height="3.6" fill="currentColor" stroke="currentColor" stroke-width="0.1"/>
  <rect x="7.2" y="14.2" width="3.6" height="3.6" fill="currentColor" stroke="currentColor" stroke-width="0.1"/>
  <rect x="17.7" y="10.7" width="3.6" height="3.6" fill="currentColor" stroke="currentColor" stroke-width="0.1"/>
  <rect x="17.7" y="14.2" width="3.6" height="3.6" fill="currentColor" stroke="currentColor" stroke-width="0.1"/>
  <rect x="17.7" y="17.7" width="3.6" height="3.6" fill="currentColor" stroke="currentColor" stroke-width="0.1"/>
  <rect x="17.7" y="3.7" width="3.6" height="3.6" fill="currentColor" stroke="currentColor" stroke-width="0.1"/>
  <rect x="21.2" y="10.7" width="3.6" height="3.6" fill="currentColor" stroke="currentColor" stroke-width="0.1"/>
  <rect x="21.2" y="14.2" width="3.6" height="3.6" fill="currentColor" stroke="currentColor" stroke-width="0.1"/>
  <rect x="10.7" y="24.7" width="3.6" height="3.6" fill="currentColor" stroke="currentColor" stroke-width="0.1"/>
  <rect x="17.7" y="24.7" width="3.6" height="3.6" fill="currentColor" stroke="currentColor" stroke-width="0.1"/>
  <rect x="21.2" y="7.2" width="3.6" height="3.6" fill="currentColor" stroke="currentColor" stroke-width="0.1"/>
  <rect x="24.7" y="7.2" width="3.6" height="3.6" fill="currentColor" stroke="currentColor" stroke-width="0.1"/>
  <rect x="28.2" y="7.2" width="3.6" height="3.6" fill="currentColor" stroke="currentColor" stroke-width="0.1"/>
</svg>
