<svg width="32" height="32" viewBox="0 0 32 32" fill="none" xmlns="http://www.w3.org/2000/svg">
<path fill-rule="evenodd" clip-rule="evenodd" d="M0.0993789 4.07448V21.1109H3.63285L3.63285 24.5181H7.16632V27.9254H17.7667V24.5181H21.3002V27.9254H28.3672V24.5181H31.9006V21.1109H28.3672V24.5181H21.3002V14.2963H17.7667V10.889H14.2333V7.48175H10.6998V4.07448H0.0993789ZM14.2333 21.1109H17.7667V24.5181H14.2333V21.1109ZM10.6998 17.7036H14.2333V21.1109H10.6998V17.7036ZM10.6998 17.7036H7.16632V10.889H10.6998V17.7036Z" fill="#012C12"/>
<path fill-rule="evenodd" clip-rule="evenodd" d="M0 3.9751H10.7992V7.38237H14.3326V10.7896H17.8661V14.1969H21.3996V24.4188H28.2678V21.0115H32V24.6175H28.4665V28.0248H21.2008V24.6175H17.8661V28.0248H7.06694V24.6175H3.53347L3.53347 21.2102H0V3.9751ZM3.63285 21.1109L3.63285 24.5181H7.16632V27.9254H17.7667V24.5181H21.3002V27.9254H28.3672V24.5181H31.9006V21.1109H28.3672V24.5181H21.3002V14.2963H17.7667V10.889H14.2333V7.48175H10.6998V4.07448H0.0993789V21.1109H3.63285ZM17.7667 24.5181V21.1109H14.2333V17.7036H10.6998V10.889H7.16632V17.7036H10.6998V21.1109H14.2333V24.5181H17.7667ZM17.6674 24.4188V21.2102H14.3326V24.4188H17.6674ZM14.1339 21.0115V17.803H10.7992V21.0115H14.1339ZM10.6004 17.6042V10.9884H7.2657V17.6042H10.6004Z" fill="#012C12"/>
</svg>
