<svg viewBox="0 0 32 32" fill="none" xmlns="http://www.w3.org/2000/svg">
<path fill-rule="evenodd" clip-rule="evenodd" d="M17.75 3.75002H14.25V7.25002H3.75V10.75H2V14.25H0.25V21.25H10.75V14.25H9V10.75H14.25V24.75H7.25V28.25H24.75V24.75H17.75V10.75H23V14.25H21.25V21.25H31.75V14.25H30V10.75H28.25V7.25002H17.75V3.75002ZM28.25 17.75V14.25H24.75V17.75H28.25ZM3.75 14.25V17.75H7.25V14.25H3.75Z" fill="currentColor"/>
<path fill-rule="evenodd" clip-rule="evenodd" d="M14.15 3.65002H17.85V7.15002H28.35V10.65H30.1V14.15H31.85V21.35H21.15V14.15H22.9V10.85H17.85V24.65H24.85V28.35H7.15002V24.65H14.15V10.85H9.10003V14.15H10.85V21.35H0.150024V14.15H1.90002V10.65H3.65002V7.15002H14.15V3.65002ZM14.25 7.25002H3.75V10.75H2V14.25H0.25V21.25H10.75V14.25H9V10.75H14.25V24.75H7.25V28.25H24.75V24.75H17.75V10.75H23V14.25H21.25V21.25H31.75V14.25H30V10.75H28.25V7.25002H17.75V3.75002H14.25V7.25002ZM28.15 17.65V14.35H24.85V17.65H28.15ZM3.85003 14.35V17.65H7.15002V14.35H3.85003ZM28.25 17.75H24.75V14.25H28.25V17.75ZM3.75 14.25H7.25V17.75H3.75V14.25Z" fill="currentColor"/>
</svg>
