<svg viewBox="0 0 32 33" fill="none" xmlns="http://www.w3.org/2000/svg">
<path fill-rule="evenodd" clip-rule="evenodd" d="M5.40664 3.75771H8.90439V7.25547H5.40664V3.75771ZM5.40664 24.7445H8.90439V28.2423H5.40664V24.7445ZM12.4022 10.7533H8.90444V14.2511H12.4022V10.7533ZM8.90439 7.25547L12.4022 7.25552V10.7533H8.90444L8.90439 7.25547ZM15.9 14.2511L12.4022 14.2511L12.4022 17.7489H15.9V14.2511ZM8.90444 17.7489L12.4022 17.7489L12.4022 21.2467H8.90444V17.7489ZM12.4022 21.2467H8.90444L8.90439 24.7445L12.4022 24.7445V21.2467Z" fill="currentColor"/>
<path fill-rule="evenodd" clip-rule="evenodd" d="M9.00439 3.65771H5.30664V7.35547H8.80444V14.3511H12.3022V17.6489H8.80444V24.6445H5.30664V28.3423H9.00439V24.8445H12.5022V17.8489H16V14.1511H12.5022V7.15552H9.00439V3.65771ZM8.90439 7.25547H5.40664V3.75771H8.90439V7.25547ZM12.4022 7.25552V10.7533H8.90444L8.90439 7.25547L12.4022 7.25552ZM12.4022 14.2511H8.90444V10.7533H12.4022V14.2511ZM15.9 14.2511V17.7489H12.4022L12.4022 14.2511L15.9 14.2511ZM12.4022 21.2467H8.90444V17.7489L12.4022 17.7489L12.4022 21.2467ZM8.90439 24.7445L8.90444 21.2467H12.4022V24.7445L8.90439 24.7445ZM8.90439 28.2423H5.40664V24.7445H8.90439V28.2423Z" fill="currentColor"/>
<path fill-rule="evenodd" clip-rule="evenodd" d="M23.4647 14.2454H26.9741V17.7548H23.4647V14.2454ZM26.9741 24.9813H23.4647V28.4906H19.9555V32H23.4648L23.4647 28.4906L26.9741 28.4907V24.9813ZM26.9741 21.4719H23.4647V24.9813H26.9741V21.4719Z" fill="currentColor"/>
<path fill-rule="evenodd" clip-rule="evenodd" d="M27.0741 14.1454V17.8548H23.3647V14.1454H27.0741ZM23.4647 24.9813H26.9741V21.4719H23.4647V24.9813ZM27.0741 21.3719H23.3647V28.3906H19.8555V32.1H23.5648V28.5907H27.0741V21.3719ZM23.4647 28.4906L26.9741 28.4907V24.9813H23.4647V28.4906H19.9555V32H23.4648L23.4647 28.4906ZM23.4647 14.2454H26.9741V17.7548H23.4647V14.2454Z" fill="currentColor"/>
</svg>
