<svg width="32" height="32" viewBox="0 0 32 32" fill="none" xmlns="http://www.w3.org/2000/svg">
<path fill-rule="evenodd" clip-rule="evenodd" d="M17.5438 8.28027H14.4559V2.20984H17.5438V8.28027ZM17.5438 29.79H14.4559V23.7196H17.5438V29.79ZM23.7197 14.4561L23.7197 17.5439H29.7902V14.4561H23.7197ZM2.20972 17.5439L2.20972 14.4561H8.28015V17.5439H2.20972ZM17.5438 11.4746H14.456V14.4573H11.473V17.5451H14.456V20.5284H17.5438V17.5451H20.5268V14.4573H17.5438V11.4746ZM14.5609 17.4406V14.5625H17.4389V17.4406H14.5609ZM23.6146 5.29688H26.7024V8.38473H23.7196V11.3672H20.6317V8.27939H23.6146V5.29688ZM20.6317 23.7192H23.6146V26.7018H26.7024V23.6139H23.7196V20.6313H20.6317V23.7192ZM5.29724 5.29688H8.38509V8.27934H11.3681V11.3672H8.28027V8.38473H5.29724V5.29688ZM11.3681 23.7192H8.38509V26.7018H5.29724V23.6139H8.28023V20.6313H11.3681V23.7192Z" fill="#012C12"/>
<path fill-rule="evenodd" clip-rule="evenodd" d="M14.3561 8.3803V2.10986H17.6439V8.3803H14.3561ZM14.3561 29.8901V23.6196H17.6439V29.8901H14.3561ZM23.6199 17.6439L23.6199 14.3561H29.8903V17.6439H23.6199ZM2.10986 14.3561H8.3803V17.6439H2.10986L2.10986 14.3561ZM14.3561 11.3746H17.644V14.3573H20.6269V17.6451H17.644V20.6284H14.3561V17.6451H11.3732V14.3573H14.3561V11.3746ZM14.456 14.4573H11.473V17.5451H14.456V20.5284H17.5438V17.5451H20.5268V14.4573H17.5438V11.4746H14.456V14.4573ZM26.8026 5.1969V8.48475H23.8197V11.4673H20.5319V8.17942H23.5147V5.1969H26.8026ZM23.7196 11.3672H20.6317V8.27939H23.6146V5.29688H26.7024V8.38473H23.7196V11.3672ZM20.5319 23.8192V20.5314H23.8197V23.514H26.8026V26.8018H23.5147V23.8192H20.5319ZM23.6146 23.7192V26.7018H26.7024V23.6139H23.7196V20.6313H20.6317V23.7192H23.6146ZM8.48524 5.1969V8.17936H11.4683V11.4672H8.18042V8.48475H5.19739V5.1969H8.48524ZM5.29724 8.38473V5.29688H8.38509V8.27934H11.3681V11.3672H8.28027V8.38473H5.29724ZM11.3681 23.7192H8.38509V26.7018H5.29724V23.6139H8.28023V20.6313H11.3681V23.7192ZM8.18037 23.514V20.5314H11.4682V23.8192H8.48524V26.8018H5.19739V23.514H8.18037ZM17.5438 2.20984H14.4559V8.28027H17.5438V2.20984ZM17.5438 29.79H14.4559V23.7196H17.5438V29.79ZM2.20972 17.5439L2.20972 14.4561H8.28015V17.5439H2.20972ZM14.5609 17.4406V14.5625H17.4389V17.4406H14.5609ZM17.3391 17.3406V14.6625H14.661V17.3406H17.3391ZM23.7197 14.4561H29.7902V17.5439H23.7197L23.7197 14.4561Z" fill="black"/>
</svg>
