<svg viewBox="0 0 32 32" fill="none" xmlns="http://www.w3.org/2000/svg">
<path fill-rule="evenodd" clip-rule="evenodd" d="M17.5438 8.28034H14.4559V2.2099H17.5438V8.28034ZM17.5438 29.7901H14.4559V23.7197H17.5438V29.7901ZM23.7197 14.4561L23.7197 17.544H29.7902V14.4561H23.7197ZM2.20972 17.544L2.20972 14.4561H8.28015V17.544H2.20972ZM17.5438 11.4747H14.456V14.4573H11.473V17.5452H14.456V20.5285H17.5438V17.5452H20.5268V14.4573H17.5438V11.4747ZM14.5609 17.4406V14.5625H17.4389V17.4406H14.5609ZM23.6146 5.29694H26.7024V8.38479H23.7196V11.3673H20.6317V8.27945H23.6146V5.29694ZM20.6317 23.7193H23.6146V26.7018H26.7024V23.614H23.7196V20.6314H20.6317V23.7193ZM5.29724 5.29694H8.38509V8.2794H11.3681V11.3673H8.28027V8.38479H5.29724V5.29694ZM11.3681 23.7193H8.38509V26.7018H5.29724V23.614H8.28023V20.6314H11.3681V23.7193Z" fill="currentColor"/>
<path fill-rule="evenodd" clip-rule="evenodd" d="M14.3561 8.38036V2.10992H17.6439V8.38036H14.3561ZM14.3561 29.8901V23.6197H17.6439V29.8901H14.3561ZM23.6199 17.644L23.6199 14.3561H29.8903V17.644H23.6199ZM2.10986 14.3561H8.3803V17.644H2.10986L2.10986 14.3561ZM14.3561 11.3747H17.644V14.3573H20.6269V17.6452H17.644V20.6285H14.3561V17.6452H11.3732V14.3573H14.3561V11.3747ZM14.456 14.4573H11.473V17.5452H14.456V20.5285H17.5438V17.5452H20.5268V14.4573H17.5438V11.4747H14.456V14.4573ZM26.8026 5.19696V8.48481H23.8197V11.4673H20.5319V8.17948H23.5147V5.19696H26.8026ZM23.7196 11.3673H20.6317V8.27945H23.6146V5.29694H26.7024V8.38479H23.7196V11.3673ZM20.5319 23.8193V20.5314H23.8197V23.514H26.8026V26.8019H23.5147V23.8193H20.5319ZM23.6146 23.7193V26.7018H26.7024V23.614H23.7196V20.6314H20.6317V23.7193H23.6146ZM8.48524 5.19696V8.17942H11.4683V11.4673H8.18042V8.48481H5.19739V5.19696H8.48524ZM5.29724 8.38479V5.29694H8.38509V8.2794H11.3681V11.3673H8.28027V8.38479H5.29724ZM11.3681 23.7193H8.38509V26.7018H5.29724V23.614H8.28023V20.6314H11.3681V23.7193ZM8.18037 23.514V20.5314H11.4682V23.8193H8.48524V26.8019H5.19739V23.514H8.18037ZM17.5438 2.2099H14.4559V8.28034H17.5438V2.2099ZM17.5438 29.7901H14.4559V23.7197H17.5438V29.7901ZM2.20972 17.544L2.20972 14.4561H8.28015V17.544H2.20972ZM14.5609 17.4406V14.5625H17.4389V17.4406H14.5609ZM17.3391 17.3407V14.6625H14.661V17.3407H17.3391ZM23.7197 14.4561H29.7902V17.544H23.7197L23.7197 14.4561Z" fill="currentColor"/>
<path d="M8.16425 8.16406H23.8361V23.836H8.16425V8.16406Z" fill="currentColor"/>
</svg>
